<svg width="169" height="48" viewBox="0 0 169 48" fill="none" xmlns="http://www.w3.org/2000/svg">
<path fill-rule="evenodd" clip-rule="evenodd" d="M3.49841 33.2907L19.914 4.59884L34.4459 30.2849H36.5987L19.914 0.5L0 35.2035H11.0334L12.1099 33.2907H3.49841ZM20.1831 35.2035L20.9904 33.2907H50.0541L33.9076 4.59884L29.3328 11.9767L28.2564 10.064L33.9076 0.5L53.8217 35.2035H20.1831ZM24.4889 17.4419L25.5653 19.3547L10.7643 45.314H42.7882L38.2134 37.1163H40.6354L46.5557 47.5H6.99682L24.4889 17.4419ZM117.204 17.4418C118.538 17.4418 119.62 16.3407 119.62 14.9825C119.62 13.6242 118.538 12.5232 117.204 12.5232C115.87 12.5232 114.789 13.6242 114.789 14.9825C114.789 16.3407 115.87 17.4418 117.204 17.4418ZM114.789 19.6277V38.2091H119.62V19.6277H114.789ZM71.0441 13.0697V38.4825H75.3381V34.3837L77.7534 31.9244L82.5841 38.4825H87.9515L80.4371 28.372L87.4147 19.9011H82.5841L75.3381 28.372V13.0697H71.0441ZM91.9771 13.0697L92.2454 38.4825H96.5394V26.7325C96.5394 21.8139 104.591 21.7046 104.591 26.7325V38.4825H109.153V25.3662C108.884 21.2674 102.766 16.786 96.5394 21.8139V13.0697H91.9771ZM135.99 39.3024C140.881 39.3024 144.846 34.8982 144.846 29.4652C144.846 24.0323 140.881 19.628 135.99 19.628C133.59 19.628 131.412 20.6889 129.817 22.4116V20.1745H125.255V44.7675H129.817V36.5189C131.412 38.2415 133.59 39.3024 135.99 39.3024ZM135.185 34.9304C138.149 34.9304 140.553 32.3612 140.553 29.192C140.553 26.0228 138.149 23.4536 135.185 23.4536C132.221 23.4536 129.818 26.0228 129.818 29.192C129.818 32.3612 132.221 34.9304 135.185 34.9304ZM158.801 23.4534C156.231 23.4534 153.434 25.6268 153.434 29.1918C153.434 32.7568 156.231 34.9301 158.801 34.9301C161.372 34.9301 164.169 32.7568 164.169 29.1918C164.169 25.6268 161.372 23.4534 158.801 23.4534ZM158.801 39.3022C164.434 39.3022 168.999 34.7756 168.999 29.1918C168.999 23.6079 164.434 19.0813 158.801 19.0813C153.169 19.0813 148.603 23.6079 148.603 29.1918C148.603 34.7756 153.169 39.3022 158.801 39.3022Z" fill="#FBFBFB"/>
</svg>
